<?xml version="1.0" encoding="UTF-8" standalone="no"?>
<svg xmlns="http://www.w3.org/2000/svg" viewBox="0 0 1920 532">
  <path fill="#333333"
    d="M0 425.07V317.498l3.964 1.508c120.8-27.237 258.895 23.819 365.246-3.928 4.141-1.039 4.144-1.05 4.144-15.423 0-10.961-.511-14.58-2.15-15.208-4.924-1.89-5.894-8.857-3.935-28.27l1.876-18.599-3.515-2.652-3.515-2.652 5.119-11.995c5.525-12.948 7.646-16.386 7.646-12.39 0 1.378.76 2.975 1.69 3.55 1.126.696 1.36.005.7-2.072-.543-1.713-.248-3.572.655-4.13 1.115-.69 1.576 2.09 1.433 8.647-.115 5.316.53 11.382 1.435 13.48 1.638 3.8 1.644 3.796 1.3-.763-.227-3.01.315-4.446 1.581-4.19 1.431.287 1.672-1.284.936-6.107-.545-3.571-1.56-7.605-2.255-8.964-1.52-2.974-.341-4.493 2.611-3.36 1.55.595 1.868.073 1.13-1.852-.605-1.576-.141-3.388 1.127-4.398 1.185-.945 3.095-3.37 4.244-5.391 1.816-3.193 1.766-3.91-.381-5.48-4.04-2.955-3.35-16.14 1.062-20.284 4.27-4.013 8.79-4.238 12.984-.648 4.396 3.763 6.563 12.762 3.938 16.353-2.373 3.246-1.722 16.726.965 19.964 1.833 2.21.81 5.277-1.76 5.277-.84 0-1.146-.615-.682-1.366.464-.752-.253-1.788-1.594-2.303-1.53-.586-2.093-1.928-1.51-3.594.536-1.536-.717-.815-2.969 1.71-3.275 3.673-3.823 5.6-3.44 12.092.307 5.213 1.199 7.966 2.744 8.472 2.035.666 2.035.44 0-2.036-1.744-2.123-1.835-2.94-.382-3.428 1.082-.365 1.976-3.398 2.064-7.003.15-6.085.205-6.156 1.284-1.642.62 2.595.676 8.237.125 12.537-.763 5.95-.499 8.013 1.105 8.629 1.45.557 1.85-.023 1.28-1.852-1.037-3.333 1.299-7.572 2.817-5.115.574.93.55 2.548-.052 3.598-.604 1.05-.536 1.399.151.776.687-.622 2.187-.352 3.334.6 1.147.951 2.526 1.289 3.065.75.54-.54.156-.981-.853-.981-1.396 0-1.42-.774-.102-3.237.952-1.78 1.088-2.84.302-2.354-2.15 1.33-8.046-3.37-7.935-6.326.067-1.788.543-1.468 1.546 1.037 1.228 3.069 2.174 3.476 6.199 2.671 2.612-.523 5.783-.95 7.048-.95 1.785 0 2.124-1.309 1.515-5.851-.586-4.366-.244-5.851 1.347-5.851 1.373 0 1.816.996 1.244 2.798-.489 1.54-.226 2.799.584 2.799 2.38 0 4.697 17.38 5.642 42.31.899 23.711-.012 29.43-4.673 29.43-1.664 0-2.235 1.944-2.235 7.603 0 6.645.432 7.698 3.433 8.353 9.41 2.053 9.412 2.053 10.502-6.034.566-4.198 2.037-11.41 3.27-16.027 1.735-6.5 1.912-10.808.787-19.08-.983-7.227-.92-13.361.197-18.953.907-4.548 1.65-12.619 1.65-17.935 0-9.52-.064-9.668-4.197-9.701-2.308-.018-5.646-1.221-7.418-2.672-7.036-5.759-13.415-23.905-12.16-34.585.992-8.425 8.837-28.746 15.27-39.55 4.137-6.947 6.173-8.594 17.277-13.98 11.325-5.494 12.683-6.614 13.544-11.18.567-3.003.257-5.777-.76-6.793-2.704-2.705-2.09-17.558.939-22.686 4.686-7.935 14.647-7.621 20.809.656 3.79 5.093 4.071 13.373.71 20.923-5.68 12.752-5.934 13.737-3.54 13.737 2.759 0 2.89 1.732.35 4.582-1.601 1.796-1.452 1.793.928-.017 2.489-1.895 3.083-1.82 4.858.608 1.184 1.62 2.795 2.29 3.886 1.615 1.051-.65 1.471-.517.963.304-.495.801.47 2.313 2.145 3.359 2.81 1.754 2.91 1.651 1.312-1.337-1.63-3.046-1.523-3.127 1.816-1.367 1.952 1.028 4.04 2.626 4.638 3.55.6.923 1.97 1.679 3.046 1.679 5.79 0 13.961 48.694 9.4 56.023-.677 1.09-1.027 3.562-.777 5.495.25 1.934-.197 4.338-.993 5.343s-1.907 4.384-2.47 7.51c-.563 3.125-1.997 6.227-3.186 6.892-2.385 1.335-2.052 4.632 3.683 36.5 1.842 10.234 3.483 28.286 4.115 45.271l1.052 28.25 4.38.643c6.176.907 10.417-2.532 10.437-8.464.012-2.68 1.077-8.309 2.373-12.506 1.89-6.12 2.151-11.767 1.32-28.502-1.013-20.405-1.119-20.891-4.716-21.794-5.689-1.428-6.846-7.186-6.765-33.656.148-47.878 1.406-57.312 7.341-55.034 1.927.74 2.037.493.573-1.272-1.238-1.492-1.307-2.504-.216-3.178.88-.544 1.557-3.868 1.503-7.386-.081-5.376-.317-5.849-1.477-2.963-.759 1.889-1.653 3.434-1.987 3.434-1.098 0 1.46-11.373 3.348-14.882 1.015-1.889 1.515-3.434 1.11-3.434-.406 0-.018-2.06.857-4.578.9-2.58 2.3-4.142 3.209-3.58.97.6 1.16.265.48-.838-1.458-2.357 4.91-8.797 9.949-10.062 5.621-1.411 12.636 5.406 11.753 11.422-.357 2.432-.086 4.074.601 3.649.688-.425 1.25 1.975 1.25 5.333s-.615 6.486-1.367 6.95c-1.197.74.15 10.839 1.647 12.335.3.3 3.765 1.926 7.699 3.613 5.747 2.464 7.419 4.057 8.508 8.11.75 2.789.78 6.616.07 8.564-.725 1.983-.706 3.163.04 2.7.73-.451 1.812 2.428 2.403 6.4.591 3.972 1.327 8.595 1.635 10.274.309 1.68 1.674 11.296 3.035 21.37 1.36 10.074 3.023 20.457 3.693 23.072 1.21 4.724-.214 9.351-3.58 11.63-2.394 1.62-5.472 1.42-5.472-.358 0-.84 1.333-1.526 2.962-1.526 3.8 0 5.692-3.004 2.957-4.694-1.388-.858-2.383-.503-2.926 1.046-.453 1.291-1.483 2.125-2.29 1.853-.806-.273-1.684 1.909-1.951 4.847-.267 2.939-1.812 11.346-3.434 18.683-3.257 14.736-3.938 39.512-1.342 48.86 1.34 4.83 2.24 5.725 5.756 5.725 2.292 0 5.713-1.083 7.603-2.407 2.875-2.014 4.709-2.134 11.245-.732 4.295.922 8.032 1.452 8.305 1.18.273-.273-.084-4.163-.793-8.646-.708-4.483-.947-12.398-.53-17.59l.757-9.44-5.378-2.552c-2.958-1.404-6.82-2.553-8.581-2.553-5.839 0-4.784-11.123 1.693-17.85l4.693-4.875-.768-17.41c-.505-11.451-.16-18.899 1.01-21.76l1.777-4.35 2.584 3.69c2.309 3.297 2.83 3.444 4.897 1.377 2.066-2.067 2.026-2.995-.377-8.712-2.881-6.856-6.675-8.349-9.553-3.758-1.417 2.26-1.521 2.112-.676-.955.743-2.693.504-3.32-.926-2.435-1.25.773-1.544.573-.838-.569.598-.968-.104-3.776-1.56-6.241-1.993-3.375-2.225-4.992-.939-6.542 1.037-1.249 1.185-2.908.377-4.215-.765-1.239-.745-3.254.046-4.735.759-1.417 1.745-6.95 2.191-12.293 1.264-15.124 3.062-18.984 10.52-22.596 7.055-3.415 10.114-3.94 10.114-1.737 0 .775 1.778 3.522 3.951 6.105 4.928 5.858 10.147 6.175 12.61.766 1.912-4.195 1.135-7.023-1.796-6.54-.986.163-4.392-.243-7.57-.902-13.378-2.775-15.2-25.923-3.272-41.565 3.178-4.168 4.89-5.066 9.653-5.066 5.934 0 10.833 3.5 10.851 7.753.005 1.193.99 4.049 2.189 6.347 1.468 2.814 1.776 5.583.944 8.484-1.67 5.821-5.807 13.656-7.548 14.294-1.49.545-2.183 3.365-1.88 7.658.146 2.06 1.548 2.483 7.182 2.165 10.083-.57 10.721-2.27 7.639-20.37-.712-4.181-.38-4.961 2.113-4.961 3.943 0 11.353 12.675 11.17 19.107-.154 5.427-3.7 13.126-8.936 19.403-3.445 4.13-4.084 7.588-5.858 31.704-.34 4.618.391 14.92 1.624 22.896 2.656 17.17 1.918 25.677-4.431 51.135-3.952 15.845-4.596 21.355-4.774 40.831-.145 15.9.303 22.515 1.526 22.515 1.563 0 9.927-2.276 22.794-6.202 6.096-1.86 10.826-1.812 14.49.149 2.726 1.46 2.953 1.022 2.968-5.724.01-4.017 1.116-10.739 2.458-14.936 1.987-6.21 2.517-16.73 2.847-56.477.388-46.871.77-55.04 2.722-58.2 1.42-2.296-2.106-16.475-4.431-17.824-1.167-.677-3.893-4.727-6.058-9-3.43-6.77-3.685-8.238-1.985-11.415 1.074-2.006 2.828-3.31 3.898-2.9 2.896 1.112 8.831-6.906 6.301-8.512-1.38-.877-1.058-1.254 1.1-1.287 2.538-.04 2.666-.3.762-1.547-1.259-.825-5.126-1.092-8.594-.593-3.88.558-6.703.263-7.34-.766-.648-1.05.565-1.739 3.254-1.85 3.178-.131 3.497-.367 1.235-.911-4.94-1.189-6.389-3.488-2.213-3.514 2.98-.018 3.274-.326 1.45-1.512-1.678-1.09-.959-1.34 2.693-.937 4.354.481 4.74.25 3.052-1.835-1.538-1.9-1.54-2.15-.01-1.23 1.23.739 2.46-.116 3.42-2.379l1.499-3.532-.368 3.8c-.202 2.089.32 3.817 1.159 3.839.84.023 2.384.585 3.433 1.251 1.263.802 1.94.278 2.005-1.55.078-2.223.365-2.092 1.477.674 1.384 3.444 4.53 4.77 4.53 1.908 0-.84 1.374-1.527 3.053-1.527 3.875 0 3.925-3.316.103-6.775-1.622-1.469-2.58-3.636-2.126-4.816.453-1.18-.015-2.146-1.04-2.146-1.324 0-1.584-1.874-.9-6.488.732-4.939.227-7.853-2.12-12.21-1.694-3.15-2.392-5.725-1.55-5.725.84 0 1.518-1.202 1.505-2.671-.02-2.307-.246-2.36-1.659-.381-1.308 1.831-1.48 1.59-.865-1.212.424-1.925.188-5.531-.524-8.013-.711-2.482-.719-4.513-.017-4.513s.938-1.296.524-2.88c-.414-1.584.11-3.414 1.165-4.067 1.363-.842 1.627-.427.914 1.434-.597 1.556-.393 2.24.503 1.687.83-.513 1.509-2.442 1.509-4.285 0-2.496 1.366-3.78 5.341-5.025 2.938-.92 5.32-1.26 5.293-.755-.106 2.003-4.13 6.15-5.062 5.218-.547-.546-.994-.152-.994.877 0 1.03-.642 1.474-1.428.988-.86-.532-.954.798-.235 3.345.657 2.324.87 5.171.475 6.325-.426 1.244.47.933 2.2-.763 2.284-2.238 2.467-3.041.841-3.685-2.75-1.088-2.461-2.179 1.79-6.767 3.24-3.495 4.036-3.69 8.736-2.125 8.237 2.741 9.627 4.916 9.869 15.444.154 6.71-.623 11.111-2.621 14.855-5.478 10.263-2.832 16.337 9.307 21.366 2.552 1.058 4.64 2.87 4.64 4.027 0 2.855 1.516 2.646 4.113-.566 1.95-2.41 1.998-2.336.496.763-1.577 3.256-1.046 4.134 2.136 3.53.772-.148.516.801-.568 2.108-1.212 1.46-1.346 2.376-.349 2.376.893 0 2.047-.687 2.566-1.527.519-.84 1.974-1.526 3.233-1.526 1.259 0 1.9.628 1.426 1.396-.474.768-.148 1.634.726 1.926 1.42.473 4.848 11.572 7.105 23.009 1.46 7.391-.93 18.19-4.216 19.05-1.613.422-2.932 1.352-2.932 2.067 0 .716-1.03.905-2.29.422-3.062-1.175-2.864 1.85.626 9.537 1.567 3.45 2.524 7.97 2.127 10.046-.396 2.075.379 11.272 1.723 20.439 1.65 11.252 2.37 25.875 2.22 45.015-.158 19.835.336 29.399 1.644 31.842 1.028 1.921 1.586 6.336 1.24 9.811-.531 5.35.63 8.703 7.58 21.889 7.694 14.6 8.42 15.474 11.62 14.015 3.256-1.484 3.429-2.483 3.745-21.676.182-11.067.95-28.364 1.706-38.438 9.927-42.584-16.141-84.393.107-122 0-1.198-1.202-2.492-2.67-2.876-1.644-.43-1.057-.766 1.525-.875 2.309-.098 4.197-.842 4.197-1.656 0-.813-1.202-1.091-2.67-.619-1.719.553-2.03.392-.876-.45.988-.72 13.32-1.146 27.404-.946 18.874.268 25.92-.128 26.796-1.506.929-1.462 1.192-1.454 1.21.04.013 1.05.703 1.909 1.533 1.909.938 0 1.309-6.51.98-17.172-.292-9.445.124-20.477.926-24.516 1.374-6.93-.393-24.486-2.697-26.79-1.651-1.652-3.86 3.586-3.31 7.844.334 2.577-.098 4.011-1.1 3.658-.907-.32-1.409-1.88-1.115-3.47.379-2.047-1.037-1.222-4.857 2.83-2.966 3.145-6.112 5.718-6.992 5.718-.88 0-2.056 1.89-2.614 4.198-1.036 4.286-6.362 12.947-8.527 13.865-.66.28-1.202 2.34-1.205 4.579-.003 2.239-1.367 6.303-3.03 9.031-3.237 5.31-5.756 6.93-3.122 2.008 2.78-5.197 1.709-4.933-3.347.826l-4.926 5.611-1.177-5.666c-1.012-4.873-.535-6.6 3.405-12.328 4.348-6.32 4.5-7.05 2.96-14.226-1.42-6.625-2.021-7.46-4.84-6.723-2.535.663-3.012.303-2.247-1.693 1.21-3.152 1.24-3.154-6.978.37-3.726 1.597-7.216 4.057-7.757 5.467-2.084 5.431-.867 14.582 2.876 21.623 2.17 4.08 3.417 8.294 2.849 9.62-.556 1.3-.898 4.386-.76 6.86.297 5.34-.324 4.893-2.609-1.88-.93-2.757-1.09-4.641-.357-4.188 2.963 1.831 2.484-3.43-.933-10.26-3.944-7.884-5.965-9.72-3.468-3.152 1.236 3.252 1.07 4.37-.801 5.418-3.111 1.741-2.976 3.89.698 11.099 2.08 4.081 2.312 5.252.727 3.666-2.821-2.821-8.846-18.176-7.132-18.176.67 0 1.282-2.3 1.362-5.113.08-2.813 1.264-7.277 2.63-9.922 1.368-2.644 2.248-4.808 1.956-4.808-.291 0-3.76 1.1-7.706 2.446-5.688 1.938-7.642 2.06-9.417.586-1.904-1.58-1.385-2.545 3.471-6.443 3.141-2.521 7.671-5.281 10.067-6.134 2.513-.894 5.29-3.563 6.562-6.306 2.195-4.734 2.2-4.736 1.306-.436-.756 3.637-.466 4.193 1.833 3.516 1.501-.442 5.268-1.253 8.37-1.802 3.353-.594 5.912-2.02 6.31-3.516.552-2.083.698-2.028.845.318.223 3.566 2.167 2.852 13.858-5.088 4.974-3.378 10.282-6.195 11.797-6.26 1.515-.064.128-.923-3.083-1.907L817.22 58.7l4.693-2.758c5.503-3.232 5.719-4.236 1.696-7.877-2.418-2.189-2.825-3.967-2.109-9.194.555-4.048.248-6.876-.818-7.535-.938-.58-1.706-3.28-1.706-6.002 0-2.72-.673-5.62-1.496-6.443-2.179-2.18 1.037-13.049 4.819-16.286 4.196-3.593 14.71-3.44 19.167.278 8.511 7.104 8.781 24.874.6 39.564-1.099 1.975-1.622 5.03-1.162 6.79.46 1.759.094 4.093-.813 5.186-1.238 1.492-1.037 1.987.806 1.987 1.363 0 3.446 2.371 4.681 5.327 1.576 3.772 2.918 5.061 4.599 4.416 1.305-.5 2.373-.15 2.373.779s.833 1.518 1.85 1.308c1.18-.244 1.959 1.929 2.15 5.992.165 3.505 1.029 7.626 1.92 9.158 1.35 2.325 1.626 1.84 1.665-2.94.025-3.147.594-5.723 1.263-5.723 1.797 0 6.827 31.4 5.633 35.164-.563 1.772.013 7.465 1.28 12.65 1.267 5.184 3.407 14.578 4.758 20.874 1.35 6.296 4.84 16.936 7.755 23.644 6.397 14.717 6.678 20.276 1.346 26.614-4.748 5.644-7.168 4.775-5.877-2.11.613-3.266.093-6.687-1.479-9.727-1.333-2.579-2.424-6.272-2.424-8.208 0-4.195-14.894-25.634-17.808-25.634-1.117 0-2.032.805-2.032 1.788 0 2.467 6.79 19.94 12.102 31.147 2.418 5.102 7.136 19.87 10.484 32.818l6.086 23.542-.005 36.339c-.003 19.986.405 36.749.905 37.25 1.279 1.278 5.756-9.922 6.204-15.518.204-2.556 1.51-6.846 2.9-9.532 1.391-2.687 2.53-7.578 2.53-10.868s1.405-10.365 3.123-15.721c3.043-9.49 3.244-19.611.603-30.346-.522-2.122-.372-3.138.338-2.29 2.222 2.657 4.737 2.287 5.549-.817.444-1.698.017-3.008-.981-3.022-1.255-.017-1.226-.365.098-1.207 3.008-1.911 6.79-14.172 5.026-16.297-.836-1.008-1.318-6.914-1.071-13.126.288-7.242-.286-12.767-1.6-15.403-4.134-8.288-6.76-26.383-6.787-46.75-.028-20.426 1.317-27.394 6.234-32.358 2.012-2.031 2.118-1.945.939.763-.732 1.68-1.618 6.312-1.97 10.295-.496 5.627-.095 7.45 1.798 8.177 2.652 1.018 3.383 5.187.909 5.187-.84 0-1.47 2.576-1.402 5.724l.125 5.724 2.367-5.342c1.32-2.976 2.42-9.905 2.485-15.646.065-5.666.66-10.303 1.323-10.303 1.973 0 1.37-4.305-.899-6.426-1.767-1.65-1.46-2.275 1.908-3.89 3.886-1.862 3.832-1.9-1.745-1.236-3.916.467-5.427.153-4.726-.981.567-.917.067-2.436-1.11-3.375-3.542-2.823-6.09-8.215-4.185-8.85.914-.305 1.662-2.402 1.662-4.66 0-2.26.534-3.777 1.187-3.373.652.403 1.904-1.327 2.782-3.844.877-2.518 2.358-4.578 3.29-4.578.933 0 1.293-.652.8-1.449-.492-.797 1.549-1.908 4.535-2.468 4.073-.764 5.243-1.642 4.683-3.512-1.01-3.368 2.77-8.099 5.602-7.012 1.462.562 2.577-.251 3.103-2.263.72-2.756 2.014-3.139 10.617-3.139 8.298 0 10.31.546 13.151 3.572 7.367 7.842 7.357 17.061-.04 37.373l-4.626 12.706 3.84 7.402 3.84 7.402-6.353-.615c-4.464-.432-5.672-.177-4.064.857 2.44 1.567 13.735 2.105 13.735.654 0-.475-.675-2.125-1.5-3.666-1.254-2.345-1.013-2.676 1.477-2.024 4.977 1.302 5.704 3.62 6.6 21.054.839 16.339 3.101 28.239 5.368 28.239.615 0 1.304-4.98 1.531-11.067.227-6.086.583-15.532.79-20.991.406-10.664 3.708-16.787 9.055-16.787 1.542 0 2.405-.645 1.918-1.433-.487-.788.059-1.99 1.213-2.67 1.154-.682 2.91-2.785 3.901-4.674.992-1.889 3.092-3.434 4.667-3.434 2.16 0 3.122-1.526 3.913-6.209 1.195-7.073.32-8.815-3.032-6.033-1.717 1.425-2.326 1.459-2.326.127 0-.991-.61-1.426-1.356-.965-1.725 1.066-6.72-13.966-5.368-16.154.555-.899 1.211-4.344 1.458-7.656.448-6.006 4.144-13.481 6.666-13.481.73 0 3.47-2.001 6.087-4.446 3.163-2.955 4.113-4.706 2.832-5.222-1.327-.535-1.214-.796.363-.84 1.26-.034 5.036 2.29 8.394 5.167l6.104 5.23.1 17.227c.117 20.47.181 21.044 2.35 21.044.928 0 7.456 1.76 14.508 3.911 11.148 3.401 13.142 4.547 15.279 8.777 1.352 2.676 3.727 6.258 5.279 7.96 6.011 6.596 10.715 54.452 6.184 62.92-.955 1.783-2.439 8.298-3.298 14.477-1.472 10.582-1.288 12.114 3.177 26.427 2.607 8.356 5.672 18.284 6.812 22.062 1.14 3.778 3.831 11.939 5.981 18.135 2.15 6.197 3.91 12.81 3.91 14.696 0 1.886 1.011 4.269 2.248 5.295 1.237 1.027 2.718 4.374 3.29 7.438 1.042 5.564 8.796 27.974 13.406 38.743 2.818 6.58 7.797 8.582 14.473 5.816 4.133-1.713 4.291-2.121 3.02-7.779-.737-3.284-2.404-8.629-3.703-11.877-1.3-3.248-2.214-6.523-2.031-7.277.844-3.483-2.307-12.733-5.516-16.195-4.127-4.45-5.317-13.855-5.947-46.995-.215-11.333-.955-22.597-1.644-25.03-.726-2.565-.678-4.07.114-3.581.751.464 1.457-.636 1.568-2.444.111-1.81 1.273-6.98 2.582-11.49 1.949-6.716 2.068-9.75.661-16.76l-1.718-8.558-1.94 4.548c-1.066 2.502-1.97 5.987-2.008 7.746-.04 1.759-1.499 7.254-3.246 12.211-5.3 15.031-7.741 23.987-8.199 30.07-.243 3.235-1.564 6.618-2.992 7.662-1.405 1.028-2.668 3.366-2.806 5.196-.19 2.535-.72 2.938-2.22 1.692-2.328-1.932-2.642-3.383-.439-2.021.913.564 1.504-1.097 1.46-4.108-.04-2.78.377-7.63.924-10.779.685-3.937.435-5.724-.801-5.724-1.086 0-.607-1.671 1.214-4.228 1.999-2.808 3.228-7.55 3.659-14.12.357-5.44 2.14-15.323 3.96-21.964 2.199-8.011 3.316-16.485 3.323-25.185.01-10.797.572-13.92 3.192-17.691l3.181-4.58-.896 4.056c-.492 2.23-1.305 5.123-1.805 6.427-.692 1.802-.093 2.213 2.491 1.715 6.237-1.201 16.274-11.326 13.179-13.294-1.111-.707-.486-1.155 1.632-1.17 3.902-.029 4.438-1.868 1.302-4.472-1.172-.973-1.778-3.122-1.345-4.776.432-1.654-.046-5.021-1.067-7.483-1.618-3.905-2.32-4.297-5.523-3.08-4.297 1.635-4.806.37-.998-2.482 2.39-1.79 2.27-1.9-1.144-1.049-3.413.852-3.596.684-1.736-1.584 1.794-2.189 1.69-2.659-.763-3.428-7.714-2.418-10.764-7.278-5.597-8.918 3.217-1.021 6.776-10.78 4.692-12.864-.83-.83-.273-3.71 1.39-7.182 2.499-5.217 3.452-5.858 9.518-6.407 3.708-.335 8.244-.233 10.08.228 4.624 1.16 16.607 12.396 15.364 14.407-.558.904.398 4.415 2.126 7.801 2.811 5.513 2.8 6.715-.06 6.437-.468-.046-.811 2.963-.763 6.686.046 3.722.648 6.769 1.334 6.77.686.002.84 1.287.342 2.857-.718 2.262.073 3.05 3.813 3.798 2.626.525 4.296 1.63 3.766 2.489-.57.921 1.08 1.548 4.095 1.554 4.001.006 5.728 1.039 8.314 4.961 4.524 6.862 7.895 18.07 9.68 32.182.833 6.582 2.32 14.657 3.305 17.944 1.378 4.602 1.362 8.873-.068 18.561-1.023 6.92-1.648 18.143-1.39 24.937.501 13.167-1.104 17.411-6.584 17.411-2.88 0-3.993 3.702-1.564 5.204 2.415 1.493 5.248 23.733 4.444 34.882-.439 6.077-.242 12.422.436 14.102 1.025 2.536 1.252 2.241 1.342-1.743.059-2.638 1.596-11.911 3.415-20.607 1.82-8.696 3.195-18.022 3.057-20.725-.298-5.816 11.123-28.975 14.854-30.122 4.118-1.266 14.33-1.358 20.749-.186 5.165.942 6.677.576 9.828-2.386 2.777-2.61 3.468-2.834 2.718-.88-1.632 4.255 1.435 2.996 5.567-2.285l3.836-4.902-1.488 6.627c-.82 3.644-2.12 7.806-2.892 9.248-.771 1.442-1.154 6.213-.85 10.603.303 4.39-.122 10.162-.945 12.827-6.32 20.463-7.664 26.707-9.025 41.903-1.144 12.777-2.901 21.124-6.816 32.373-2.901 8.336-5.275 16.14-5.275 17.343 0 2.456 4.866 3.564 24.418 5.557 7.135.727 14.689 1.603 16.787 1.947 3.463.568 11.278-3.411 13.958-7.106.861-1.189 2.645-15.312 3.683-29.17.189-2.518.499-4.922.689-5.342.19-.42.235-1.364.1-2.099-.134-.735.734-2.452 1.93-3.816 4.428-5.051 2.62-50.971-2.264-57.527-.665-.892-1.144-4.822-1.066-8.733.111-5.562-1.265-9.817-6.321-19.537-5.584-10.736-6.232-12.936-4.76-16.168 1.27-2.786 1.262-3.467-.027-2.668-2.535 1.566-.438-23.832 2.875-34.823 2.507-8.318 3.002-8.889 9.832-11.345 7.668-2.758 15.99-9.008 15.287-11.48-.252-.888 1.395-1.096 4.052-.512 4.843 1.063 7.897-1.306 3.74-2.902-1.829-.702-2.072-1.437-.874-2.635.914-.915 1.3-2.61.855-3.766-.444-1.157-.218-2.106.5-2.108.72-.003 1.355-2.278 1.411-5.056.075-3.692-.758-5.458-3.094-6.561-4.623-2.182-8.454 1.982-8.454 9.187 0 4.706-.35 5.352-1.993 3.688-4.928-4.987-3.856-13.726 2.552-20.803 6.359-7.022 19.387-2.285 21.757 7.911 1.311 5.644.811 13.285-1.016 15.514-.716.873-1.964 4.54-2.775 8.15-1.25 5.566-.973 7.56 1.827 13.12 1.817 3.606 5.14 7.675 7.388 9.042 4.969 3.024 8.01 11.48 6.68 18.572-.542 2.884-.527 7.68.033 10.656.993 5.293 1.083 5.353 4.058 2.672 3.018-2.72 3.023-2.698.725 2.821-1.275 3.06-1.759 6.151-1.076 6.87 2.175 2.285 9.15 24.255 9.175 28.894.013 2.456.754 5.495 1.648 6.754 1.197 1.686 1.423-.006.858-6.412-.568-6.441.018-10.773 2.264-16.68 1.667-4.389 3.303-11.722 3.636-16.297.333-4.574 1.086-8.745 1.673-9.268.586-.523.635.251.108 1.72-1.531 4.27.178 3.088 2.761-1.908l2.368-4.579h-6.09c-9.535 0-11.422-5.886-5.313-16.576 4.695-8.215 7.566-11.35 10.69-11.678 6.18-.647 11.257-2.664 10.36-4.115-1.132-1.83 4.747 1.194 10.37 5.337 4.04 2.975 4.588 6.192 2.072 12.15-1.197 2.834-5.38 3.724-5.38 1.145 0-.84 1.03-1.527 2.289-1.527 2.76 0 2.95-1.78.458-4.274-2.577-2.578-7.325-2.28-7.325.458 0 1.26.612 2.29 1.36 2.29 2.344 0 3.376 7.538 1.51 11.025-1.33 2.486-1.34 3.477-.034 3.912 2.544.848 2.136 3.38-.544 3.38-3.11 0 .696 3.666 11.031 10.624 8.828 5.945 14.124 14.011 14.204 21.638.03 2.824 1.05 9.256 2.266 14.293 2.783 11.528 2.848 21.59.188 29.191-1.138 3.254-2.54 10.724-3.114 16.601-1.04 10.653-8.048 39.947-11.739 49.072-1.673 4.14-1.576 5.368.704 8.848 2.429 3.708 3.3 3.98 10.577 3.305 4.362-.404 11.193-.78 15.18-.834l7.25-.098-.067-5.724c-.034-3.148-.654-8.472-1.372-11.83-.718-3.358-2.131-9.883-3.14-14.5a1285.657 1285.657 0 0 1-3.012-14.18c-1.896-9.31 2.372-46.063 6.594-56.78 2.003-5.086 3.354-11.218 3.03-13.756-3.062-23.972-1.932-33.562 5.856-49.707 2.683-5.562 4.63-11.924 4.489-14.668-.138-2.666.5-5.31 1.416-5.876 1.144-.707.958-1.818-.595-3.55-4.097-4.565-7.302-15.04-7.582-24.78-.269-9.34-.14-9.68 4.99-13.179 5.455-3.72 11.096-3.678 17.194.13 5.102 3.188 5.479 19.283.45 19.283-1.441 0-1.87-.89-1.232-2.555.751-1.957.365-2.318-1.653-1.544-1.567.602-2.256.4-1.701-.498.513-.83.226-1.509-.636-1.509-.863 0-1.173-1.03-.69-2.29.558-1.454-.023-2.289-1.595-2.289-2.233 0-2.257.517-.24 5.343 1.227 2.938 1.733 5.342 1.124 5.342s-.845 2.748-.525 6.106c.353 3.697 1.366 6.105 2.568 6.105 1.195 0 1.687-1.147 1.233-2.88-.414-1.585-.127-3.268.638-3.74.764-.473 1.34.451 1.277 2.055-.062 1.602.464 2.77 1.17 2.595.707-.176 2.284 1.59 3.507 3.924 1.355 2.587 2.939 3.825 4.058 3.172 1.009-.59.461.521-1.217 2.467-2.785 3.228-1.951 5.486 1.699 4.603.556-.135 1.53.595 2.166 1.622.635 1.028 3.285 1.945 5.89 2.039 5.367.193 5.282-.002 5.41 12.382l.096 9.158 12.972-.153c7.134-.085 15.719-1.131 19.076-2.325 6.388-2.272 6.274-1.97 4.976-13.166-.218-1.889-.833-3.434-1.364-3.435-.532 0-1.295-1.718-1.696-3.817-.409-2.137-.018-3.816.894-3.816.894 0-.825-2.575-3.82-5.724-5.015-5.272-5.331-6.14-3.999-11.004.796-2.904 1.166-7.192.823-9.528-.343-2.337-.288-3.913.122-3.502.41.41 1.998-1.312 3.527-3.828 2.974-4.891 4.938-5.436 11.12-3.085 4.158 1.58 5.343 4.617 1.804 4.617-1.162 0-2.49 1.45-2.954 3.222-.661 2.53.121 3.587 3.637 4.914 2.464.93 4.48 2.571 4.48 3.647 0 2.561-.797 2.466-3.706-.444-2.18-2.18-2.398-2.18-2.398 0 0 1.32.858 2.447 1.907 2.506 1.05.059.534.697-1.144 1.419-2.61 1.122-2.666 1.327-.382 1.42 1.47.058 2.671.64 2.671 1.293 0 1.34-4.267 7.762-7.062 10.628-3.461 3.549-1.348 13.947 3.943 19.408 2.671 2.756 5.1 6.303 5.397 7.882.297 1.58.679 3.043.848 3.253.17.21.41 1.24.533 2.29.124 1.049 1.411 1.706 2.861 1.46 3.286-.56 3.3.304.087 5.21-2.173 3.318-2.23 4.096-.381 5.266 1.193.755 3.405 1.383 4.917 1.396 1.7.012 3.621 2.112 5.036 5.5 3.121 7.471.95 10.044-7.581 8.98-5.518-.687-5.878-.56-2.874 1.008 3.597 1.878 4.671 6.764 1.704 7.754-.951.317-1.654 2.606-1.562 5.088 1.611 43.493 1.537 45.484-2.34 62.514-2.103 9.235-5.473 20.72-7.49 25.522-3.865 9.206-5.053 24.575-2.042 26.437 153.521 19.716 209.818-23.469 430.958-.25V532.65H0V425.071zM854.636 322.74c2.573-1.085 2.75-2.392 1.825-13.562-2.425-29.288-7.16-53.124-13.071-65.786-13.572-29.073-15.482-32.818-16.742-32.818-4.824 0-15.044 56.702-14.169 78.61.202 5.037-.413 11.086-1.366 13.44-1.296 3.205-1.293 4.723.014 6.03.96.96 1.746 4.094 1.746 6.962 0 4.87.278 5.161 4.197 4.4 2.308-.45 6.257.122 8.775 1.269 7.05 3.21 22.745 4.004 28.791 1.455zm211.032-1.032c2.05-1.576-.938-12.205-8.451-30.063-2.61-6.202-4.745-12.076-4.745-13.055 0-2.873-11.827-26.507-20.223-40.41-6.425-10.64-7.947-12.328-8.87-9.833-1.597 4.317-.592 47.899 1.69 73.295l1.942 21.616 5.481-.844c3.015-.463 7.365-1.791 9.666-2.95 4.87-2.452 10.547-1.421 14.16 2.572 2.459 2.717 5.53 2.61 9.35-.328zM738.04 319.23c2.128-1.326 4.031-2.495 4.23-2.598.198-.102-.72-5.634-2.039-12.291-1.319-6.658-2.628-15.883-2.908-20.5-.827-13.649-5.027-39.704-8.118-50.372l-2.875-9.921-2.396 8.395c-3.902 13.67-8.851 39.023-10.23 52.4-1.551 15.048.271 34.512 3.45 36.836 3.05 2.232 16.138 1.01 20.886-1.949zm576.815-7.581c.059-3.595 1.02-8.747 2.134-11.449 1.115-2.701 2.138-9.271 2.273-14.6.135-5.329.992-12.198 1.905-15.264.912-3.066 1.435-8.666 1.16-12.444-.472-6.52-.76-6.908-5.691-7.632-3.365-.495-5.583-1.839-6.299-3.816-.835-2.31-1.31-1.38-1.952 3.816a5227.247 5227.247 0 0 1-2.515 19.843c-.917 7.136-1.821 20.53-2.01 29.765l-.343 16.79 4.578 3.268c4.104 2.928 4.686 3.007 5.616.763.57-1.378 1.085-5.446 1.144-9.04zm-819.537 4.628c-.73-3.148-1.345-13-1.365-21.894-.035-15.97-1.971-25.007-8.304-38.78-1.158-2.52-3.32-9.65-4.805-15.847-3.29-13.733-4.971-12.563-9.039 6.292-1.495 6.934-3.678 15.332-4.85 18.662-1.173 3.33-3.217 13.29-4.542 22.132-1.326 8.843-2.898 19.349-3.495 23.346s-.75 7.603-.34 8.014c.41.41 3.208.814 6.215.898 3.008.084 7.186.702 9.284 1.374 2.099.673 8.035 1.29 13.193 1.375l9.377.152-1.329-5.724zm502.212 5.342c-.001-.21-1.012-6.12-2.246-13.134-2.055-11.68-2.027-13.156.33-17.553 3.424-6.388 3.03-20.883-1.023-37.62-1.728-7.135-3.147-14.863-3.153-17.171-.01-2.77-.815-4.198-2.375-4.198-5 0-11.208-4.676-13.079-9.85-1.053-2.915-2.94-5.498-4.191-5.739-1.913-.368-1.848-.866.405-3.12 1.944-1.944 2.405-3.936 1.677-7.25-.552-2.513-1.517-4.569-2.145-4.569-.628 0-2.32 9.788-3.761 21.751-1.441 11.963-3.268 24.842-4.06 28.62-.792 3.778-1.899 9.96-2.46 13.738-.562 3.778-1.904 8.242-2.983 9.921-1.078 1.68-3.131 9.476-4.561 17.327-3.112 17.08-3.262 16.883 13.105 17.175 15.577.277 20.181 1.47 22.33 5.78 1.771 3.553 4.76 6.204 7.047 6.25.63.018 1.144-.148 1.143-.358zm193.619-.571c3.92-.784 4.996-1.93 6.089-6.487 2.978-12.415 4.792-32.888 4.792-54.077 0-21.464-.132-22.436-3.07-22.436-2.057 0-4.854 2.787-8.464 8.43-8.568 13.397-11.757 21.936-12.243 32.783-.245 5.457-.921 15.683-1.504 22.725-.906 10.962-.7 13.003 1.429 14.195 1.368.765 2.487 2.388 2.487 3.606 0 2.394 3.009 2.756 10.484 1.26zm-560.735-12.359c.265-10.768-2.107-22.019-4.833-22.928-2.285-.762-3.21 7.78-2.306 21.286.612 9.14 1.335 11.882 3.245 12.312 1.351.304 2.723.356 3.049.114.325-.24.705-5.094.845-10.785zm652.348 7.588c-.083-1.47-.702-4.389-1.374-6.488-1.038-3.241-1.245-2.84-1.374 2.672-.083 3.568.535 6.487 1.374 6.487.84 0 1.458-1.202 1.374-2.671zm62.7.763c-.03-2.475-2.975-7.083-3.006-4.704-.012.98-.44 2.87-.95 4.197-.608 1.585-.083 2.415 1.526 2.415 1.349 0 2.442-.859 2.43-1.908zm-430.208-2.671c3.722 0 4.2-.67 5.185-7.25 1.355-9.053 6.34-29.444 9.424-38.542 2.266-6.689 6.599-32.805 6.458-38.924-.07-2.993-5.977 13.66-21.196 59.753-7.818 23.677-9.237 30.23-5.802 26.794 1.007-1.007 3.676-1.831 5.931-1.831zm553.407-9.54c1.984-16.42.637-18.381-2.807-4.087-3.33 13.821-3.464 16.68-.787 16.68 1.455 0 2.526-3.75 3.594-12.593zm-332.854-1.908c-1.815-5.799-4.92-7.535-3.413-1.908.506 1.889.93 4.293.94 5.342.013 1.05.95 1.908 2.083 1.908 1.657 0 1.733-1.048.39-5.342zm-576.825-21.37l.336-19.843-2.048 14.5c-1.127 7.976-2.086 18.28-2.132 22.897-.072 7.128.187 7.934 1.712 5.342 1.073-1.825 1.931-11.035 2.132-22.896zm881.738 1.854c3.056-20.403 4.441-30.751 5.547-41.434.7-6.775 3.042-19.824 5.203-28.998 2.16-9.174 3.53-17.932 3.045-19.462-.535-1.685-.125-2.78 1.038-2.78 1.056 0 .589-.975-1.04-2.166-1.627-1.19-2.408-2.716-1.734-3.39.674-.674 1.703-.49 2.287.41 1.602 2.468 8.05 5.533 9.204 4.374 1.426-1.432-5.625-6.861-8.911-6.861-1.496 0-3.116-1.03-3.599-2.29-1.059-2.76-7.075-3.083-7.087-.381-.018 4.072-3.269 13.363-5.432 15.527-1.463 1.463-1.96 3.795-1.394 6.539 3.534 17.12 3.183 26.664-1.676 45.477-2.25 8.716-2.112 25.105.32 37.792 1.02 5.318 3.267 4.066 4.229-2.357zm-1066.93-4.167c-.86-3.287-3.488-5.732-3.488-3.244 0 2.603 1.807 6.32 3.073 6.32.67 0 .858-1.384.415-3.076zm54.48-2.648c.035-2.726-2.528-2.36-3.633.52-1.271 3.313.604 6.134 2.298 3.46.722-1.14 1.323-2.93 1.336-3.98zm-53.51-14.5l-.12-11.067-2.323 6.565c-1.895 5.36-1.98 7.39-.457 11.066 1.025 2.476 2.124 4.502 2.442 4.502.318 0 .524-4.98.458-11.067zm53.534.71c0-5.072-4.778-20.172-6.383-20.172-1.971 0-1.451 18.803.642 23.24 2.282 4.835 5.741 2.987 5.741-3.068zm562.063-35.386c-.432-1.652-1.741-3.796-2.91-4.766-1.168-.97-2.124-2.71-2.124-3.866 0-1.157-.686-2.103-1.526-2.103-2.745 0-1.605 4.251 2.425 9.041 4.63 5.504 5.19 5.734 4.135 1.694zm-588.751-2.83c-1.213-1.213-3.837 1.54-2.905 3.048.633 1.026 1.42.87 2.23-.443.69-1.114.993-2.287.675-2.605zm135.042-4.089c0-4.617-.687-8.395-1.526-8.395-1.682 0-2.138 14.144-.51 15.773 1.836 1.835 2.036 1.112 2.036-7.378zm654.23 2.035c5.51-2.658 10.961-4.833 12.112-4.833 1.151 0 2.093-.5 2.093-1.109 0-.61 1.106-1.533 2.459-2.052 2.026-.778 2.274-.21 1.411 3.23-1.039 4.14-1.022 4.15 2.12 1.306 6.804-6.16 2.211-8.83-8.934-5.195-19.26 6.282-23.07 7.923-21.181 9.121 1.525.967 1.546 1.272.089 1.29-1.05.012-1.908.71-1.908 1.55 0 2.215.697 2.019 11.739-3.308zm-815.857-4.455l-1.473-3.686-.097 3.944c-.052 2.168.403 4.444 1.016 5.056 1.812 1.812 2.14-1.343.553-5.314zm44.88 3.183c.518-.84.215-1.526-.674-1.526-.888 0-1.616.687-1.616 1.526 0 .84.303 1.527.673 1.527.37 0 1.098-.687 1.616-1.527zm6.398-4.168c-.387-1.485-.729-.64-.76 1.879-.029 2.518.286 3.733.704 2.7.418-1.034.443-3.094.058-4.58zm530.142-6.135c.062-.63.407-2.862.767-4.96.5-2.917.298-3.277-.853-1.527-1.272 1.932-1.51 1.946-1.53.09-.018-1.567-.646-1.35-2.187.759-1.526 2.088-1.696 3.521-.576 4.87 1.757 2.118 4.202 2.547 4.379.768zm-3.166-2.761c0-1.31.698-1.948 1.551-1.421.853.527 1.156 1.598.673 2.38-1.308 2.117-2.224 1.722-2.224-.96zm-11.137-4.026c2.768-2.683 5.033-5.64 5.033-6.572 0-2.218 6.947-11.62 7.889-10.677.4.4 2.654-1.286 5.01-3.746 5.451-5.69 4.384-9.446-2.57-9.045-5.57.32-20.63-2.606-23.886-4.642-1.533-.958-.714-1.627 2.988-2.44 3.339-.733 5.297-.527 5.672.597.354 1.062 4.165 1.624 9.984 1.473 5.986-.155 7.467-.472 4.07-.872-2.939-.345-5.995-1.265-6.792-2.045-.797-.78-5.049-1.418-9.448-1.418-4.46 0-8.486-.79-9.102-1.785-.742-1.201-.272-1.467 1.436-.811 1.397.535 2.54.349 2.54-.416 0-.765 1.373-1.127 3.052-.803 1.679.323 3.052-.06 3.052-.851 0-.791.727-1.439 1.616-1.439.89 0 1.137.776.551 1.724-.652 1.057-.244 1.426 1.055.954 1.166-.423 1.948-1.543 1.738-2.487a568.73 568.73 0 0 1-.763-3.498c-.639-2.982-5.561-7.371-8.393-7.485-1.47-.059-4.045-.75-5.723-1.535-2.189-1.024-.57-1.282 5.723-.912 9.258.544 11.032-.505 5.34-3.16l-3.433-1.602 3.748-1.453c3.059-1.185 3.793-2.594 3.99-7.665.271-6.928-2.153-8.571-10.254-6.95-2.6.52-4.351.217-4.351-.751 0-.966-2.316-1.373-5.723-1.006-5.07.545-4.901.404 1.48-1.24 3.963-1.022 8.598-3.052 10.302-4.513 2.573-2.207 3.097-2.272 3.097-.382 0 1.251.687 2.275 1.526 2.275 2.544 0 1.707-4.606-1.028-5.655-1.404-.54-3.907-2.335-5.562-3.99-2.993-2.993-2.986-3.003 1.41-2.02l4.417.99-3.944-2.211c-2.17-1.216-6.508-5.34-9.64-9.164-3.293-4.018-6.979-6.952-8.736-6.952-1.672 0-2.61.698-2.082 1.552.527.853 1.523 1.202 2.212.776.69-.426 2.371.93 3.736 3.014 2.19 3.343 2.23 4.395.336 8.93-1.181 2.826-3.575 6.47-5.32 8.095-2.386 2.223-3.4 5.581-4.092 13.55-.506 5.826-1.696 11.072-2.643 11.658-3.06 1.891.91 35.745 5.205 44.4 2.612 5.262 4.232 6.978 5.892 6.239 4.006-1.784 23.238-8.156 24.618-8.156 3.261 0 .743 3.135-5.923 7.375-11.496 7.31-12.937 8.968-10.978 12.63 1.422 2.657 1.958 2.807 3.468.974.983-1.193 4.534-3.71 7.891-5.596l6.105-3.427-7.286 7.468c-4.008 4.107-6.812 7.943-6.232 8.523 1.686 1.686 2.407 1.329 7.722-3.824zm4.335-14.859c-.483-.781-.295-1.781.418-2.222.714-.44 1.297.198 1.297 1.42 0 2.575-.481 2.8-1.715.802zm6.039-6.21c1.52-1.68 3.106-3.054 3.525-3.054.42 0-.48 1.374-1.999 3.053-1.52 1.68-3.106 3.053-3.525 3.053-.42 0 .48-1.374 1.999-3.053zm5.473-.944c2.026-2.618 3.99-4.486 4.366-4.152.375.335-1.283 2.477-3.684 4.76l-4.366 4.151zm-9.575-4.679c1.102-.44 2.418-.386 2.926.12.507.508-.394.869-2.003.803-1.778-.074-2.14-.435-.923-.923zm-27.47-9.158c1.102-.44 2.418-.387 2.926.12.507.508-.394.868-2.003.802-1.778-.073-2.14-.435-.922-.922zm.287-3.226c0-1.529 6.98-1.47 8.52.071.63.63-1.03 1.145-3.688 1.145-2.658 0-4.832-.547-4.832-1.216zm-.354-15.832c.887-.887 2.513-1.312 3.614-.945 1.143.381.451 1.073-1.612 1.613-2.539.664-3.134.465-2.002-.668zm-2.354-2.152c1.45-1.513 2.963-2.423 3.365-2.021.401.401-.784 1.64-2.635 2.75-3.214 1.932-3.247 1.899-.73-.73zm6.91-42.606c.841-4.403 1.248-4.681 2.411-1.651.46 1.197-.06 2.92-1.154 3.829-1.567 1.301-1.834.84-1.257-2.178zm232.385 96.027c2.7-8.182.599-37.144-3.562-49.104-1.826-5.247-3.827-9.54-4.448-9.54-2.281 0-2.975 7.831-2.055 23.186 1.424 23.78 2.51 30.874 4.937 32.27 1.683.968 1.792 1.764.462 3.367-1.771 2.135-.85 5.286 1.545 5.286.725 0 2.13-2.459 3.12-5.465zm-173.12-1.777c-1.666-1.668-2.81.984-1.613 3.742 1.135 2.615 1.218 2.613 1.85-.052.364-1.535.258-3.195-.236-3.689zm-535.72-1.104c2.414-5.779 2.974-14.55.929-14.55-2.07 0-5.244-15.73-4.58-22.698.61-6.398.608-6.402-2.109-2.92-1.496 1.917-3.155 5.203-3.686 7.301-.532 2.1-2.027 5.664-3.323 7.922-2.072 3.61-2.095 4.897-.194 10.657 1.189 3.604 1.975 7.657 1.746 9.008-.229 1.35.279 4.281 1.127 6.514 2.28 5.997 7.327 5.38 10.09-1.234zm163.319-6.437c-.424-1.104-.078-2.007.77-2.007.846 0 1.377-2.748 1.18-6.106-.199-3.358-.913-6.105-1.589-6.105-.675 0-1.227-1.03-1.227-2.29s-.62-2.29-1.377-2.29-1.87 4.293-2.472 9.54c-.603 5.247-1.724 9.939-2.491 10.426-2.043 1.297.081 5.725 3.036 6.329 2.763.565 5.426-4.223 4.17-7.497zm432.878 1.202c.074-2.604.545-4.736 1.047-4.736.502 0 1.01-2.232 1.129-4.96.12-2.729.654-7.022 1.19-9.54.758-3.57.374-3.195-1.743 1.7-1.494 3.454-3.483 7.232-4.421 8.395-.938 1.164-2.567 3.833-3.62 5.932-1.586 3.159-1.568 3.487.102 1.908 3.23-3.054 4.46-2.247 4.46 2.925 0 6.163 1.676 4.696 1.856-1.624zm-542.76-7.433c-1.628-1.629-1.956.412-1.047 6.513l.91 6.106.5-5.877c.276-3.233.112-6.266-.363-6.742zm29.658 5.376c0-.851-1.012-.686-2.29.374-1.258 1.045-2.288 2.587-2.288 3.427 0 .851 1.012.686 2.289-.374 1.259-1.045 2.29-2.587 2.29-3.427zm961.448 2.85c0-1.156-1.063-2.984-2.362-4.062-1.886-1.566-1.963-2.213-.38-3.216 1.314-.835.57-1.264-2.218-1.28-4.303-.023-5.7-2.215-2.289-3.592 1.196-.483.965-.815-.62-.89-3.63-.173-1.742-6.226 1.943-6.226 3.51 0 3.798-2.794.421-4.09-1.848-.71-22.496 7.67-27.991 11.36-.377.253 1.512 2.657 4.197 5.342 2.684 2.686 4.881 4.1 4.881 3.143 0-1.13 2.006-.79 5.723.97 11.037 5.226 18.695 6.267 18.695 2.542zM406.929 176.994c0-2.519-.802-4.58-1.78-4.58-.98 0-1.33.452-.777 1.005.552.552.264 1.896-.64 2.986-1.73 2.085-.68 5.168 1.76 5.168.79 0 1.437-2.06 1.437-4.58zm-3.053-7.327c0-1.58-3.304-4.885-4.883-4.885-.672 0-1.221.687-1.221 1.527 0 .84 1.07 1.526 2.38 1.526 1.308 0 1.954.687 1.435 1.527-.518.84-.216 1.526.673 1.526s1.616-.55 1.616-1.221zm503.132-5.17c-.487-1.218-.849-.857-.922.921-.066 1.61.295 2.511.802 2.004.507-.507.56-1.824.12-2.926zm143.422-1.623c-.423-1.049-.77-.19-.77 1.908 0 2.1.347 2.958.77 1.908.424-1.049.424-2.766 0-3.816zm247.745 1.474c0-.239-1.315-4.189-2.922-8.777-1.607-4.589-2.557-10.23-2.111-12.54.692-3.585.305-4.197-2.656-4.197-3.17 0-3.268.228-1.14 2.67 1.28 1.47 2.003 3.568 1.608 4.662-1.125 3.115 1.104 12.7 2.72 11.7.797-.493 1.449.862 1.449 3.01 0 2.149.687 3.906 1.526 3.906.84 0 1.526-.195 1.526-.434zm-748.555-2.618c-.519-.84-1.762-1.516-2.761-1.503-1.092.012-.904.614.472 1.503 2.931 1.895 3.46 1.895 2.289 0zm801.23-3.162c.924-4.21.15-7.524-1.372-5.87-1.564 1.701-2.557 10.558-1.184 10.558.84 0 1.99-2.11 2.556-4.688zM904.6 152.57c-1.079-5.479-1.382-5.942-1.499-2.29-.162 5.073 1.593 12.986 2.362 10.646.268-.818-.12-4.578-.864-8.356zm588.234 6.236c-.474-.768-.034-1.672.978-2.01 1.253-.417 1.112-.892-.441-1.488-1.497-.575-2.357.116-2.5 2.01-.119 1.586.468 2.884 1.305 2.884s1.133-.628.659-1.396zm-802.223-5.565c-2-1.071-3.931-1.653-4.291-1.293-1.11 1.11 5.109 4.983 6.561 4.085.753-.465-.269-1.721-2.27-2.792zm354.23-6.013c-2.535-9.058-3.73-7.862-1.399 1.399.985 3.912 2.141 6.763 2.569 6.335.428-.428-.099-3.908-1.17-7.734zm-341.848.763c1.674-1.082.522-1.486-4.287-1.503-4-.012-6.206.575-5.632 1.503 1.196 1.936 6.924 1.936 9.92 0zm-148.032-.576c0-.317-1.03-1.432-2.29-2.477-1.874-1.556-2.288-1.452-2.288.577 0 1.362 1.03 2.476 2.289 2.476 1.259 0 2.289-.26 2.289-.576zm157.202-9.47c6.162-1.19 4.266-3.697-2.774-3.668-5.692.023-12.84 2.832-7.922 3.113 1.574.09 1.336.573-.763 1.546-3.14 1.456.367 1.153 11.46-.99zm-151.543-1.02c-.384-1.05-1.472-1.737-2.416-1.527-2.14.476-2.266-2.151-.166-3.45.853-.527 1.156-1.598.673-2.38-.483-.78-.124-1.42.798-1.42 1.079 0 .975-.76-.291-2.131-1.676-1.815-2.107-1.758-2.904.381-.515 1.382-.172 3.093.763 3.801 1.026.779.592.93-1.096.382-1.538-.499-3.124-.907-3.524-.907-.401 0-.375-.572.058-1.272.432-.7-.214-1.272-1.437-1.272-1.222 0-2.222.916-2.222 2.035 0 1.12.687 2.036 1.527 2.036.839 0 1.526.782 1.526 1.74 0 2.132 4.6 5.777 7.376 5.843 1.119.029 1.72-.81 1.335-1.86zm192.735-1.818c0-1.21-.76-2.67-1.69-3.244-1.177-.728-1.061-1.441.382-2.356 1.513-.959 1.145-1.319-1.363-1.336-3.688-.023-3.884.429-2.472 5.7 1.01 3.769 5.143 4.761 5.143 1.236zm-207.55-.69c0-.75-1.03-1.759-2.29-2.242-2.326-.893-3.125.733-1.272 2.587 1.459 1.459 3.561 1.255 3.561-.345zm91.566-4.743c0-.84-.303-1.526-.673-1.526-.37 0-1.098.687-1.616 1.526-.519.84-.216 1.527.673 1.527.888 0 1.616-.687 1.616-1.527zm1.526-7.207c0-.414-1.088-.334-2.417.176-1.53.588-2.184.23-1.782-.975.349-1.046 1.95-1.905 3.56-1.909 1.61-.003 2.86-.865 2.775-1.914-.403-5.038-.755-5.355-2.87-2.582-1.874 2.457-2.502 2.595-3.674.812-2.287-3.48-.177-6.458 4.214-5.946 3.13.364 3.996-.196 4.002-2.588.012-5.404-11.138-4.55-11.965.916-.177 1.176-.823 2.938-1.435 3.917-.612.979-.438 3.555.386 5.724.983 2.585.982 3.944-.002 3.944-.874 0-.743 1.214.314 2.907 1.663 2.664 2.111 2.713 5.354.588 1.946-1.276 3.54-2.657 3.54-3.07zm51.124 2.628c-.518-.84-2.104-1.478-3.523-1.42-2.104.089-2.017.35.471 1.42 4.084 1.755 4.137 1.755 3.052 0zm59.868.604c-.507-.507-1.823-.561-2.925-.12-1.217.487-.855.849.922.922 1.61.066 2.51-.294 2.003-.802zm-197.98-2.385c0-.7 1.114-1.272 2.476-1.272 2.028 0 2.132-.414.576-2.29-1.045-1.259-2.822-2.289-3.948-2.289-2.118 0-5.649 5.157-4.392 6.414 1.212 1.212 5.288.778 5.288-.563zm865.303-6.322c0-1.1-.916-3.25-2.035-4.782-1.855-2.537-2.035-2.36-2.035 1.998 0 2.967.772 4.781 2.035 4.781 1.119 0 2.035-.899 2.035-1.997zm71.956-3.345c0-.798-.756-1.587-1.68-1.755-1.085-.198-1.064-.013.059.528 1.224.588 1.123 1.264-.343 2.291-1.642 1.151-1.655 1.345-.058.922 1.112-.295 2.022-1.188 2.022-1.986zm-569.757-6.233c1.23-2.37 1.186-3.18-.174-3.18-1.004 0-1.927 1.648-2.052 3.661-.252 4.076-.124 4.048 2.226-.48zm70.964-3.552c-.72-.993-6.578 4.748-6.578 6.447 0 .843 1.582-.123 3.517-2.144 1.934-2.022 3.311-3.958 3.061-4.303zm-136.32-2.045c-.013-2.728-.663-5.971-1.444-7.207-2.249-3.556-3.764 1.992-1.632 5.975.943 1.762 1.298 3.876.79 4.698-.508.822-.196 1.495.693 1.495s1.605-2.232 1.593-4.96zm-5.024-14.471c-.387-1.486-.729-.64-.76 1.879-.031 2.518.286 3.733.704 2.7.418-1.034.443-3.094.056-4.58zm-364.684 3.246c-.507-.507-1.824-.561-2.925-.12-1.218.487-.856.848.922.922 1.608.066 2.51-.295 2.003-.802zm448.804-3.921c-.263-2.664-1.432-5.157-2.599-5.54-1.166-.384-1.726-.06-1.245.718.481.779.273 2.39-.463 3.581a3.52 3.52 0 0 0 .288 4.125c2.803 3.378 4.516 2.149 4.02-2.884zm183.97 1.027c.534-1.395 0-2.29-1.364-2.29-1.232 0-2.24 1.03-2.24 2.29s.612 2.29 1.362 2.29c.75 0 1.758-1.03 2.241-2.29zm-5.13-3.038c0-1.071 1.442-2.325 3.205-2.787 1.765-.461 2.753-1.57 2.199-2.467-.554-.896-.374-1.63.398-1.63s1.064-1.78.648-3.956c-.547-2.865-1.106-3.391-2.025-1.908-.698 1.127-3.18 2.049-5.517 2.049-3.101 0-4.197.721-4.059 2.67.105 1.47.276 4.711.38 7.203.142 3.36.784 4.304 2.48 3.653 1.26-.483 2.29-1.755 2.29-2.827zm.777-5.382c.528-.853 1.598-1.156 2.38-.673 2.117 1.308 1.722 2.224-.959 2.224-1.309 0-1.948-.698-1.42-1.55zm-629.534 3.895c0-1.23-1.478-3.027-3.284-3.994-2.797-1.497-3.143-1.392-2.337.71.546 1.422.16 2.512-.913 2.574-1.023.059-.486.698 1.193 1.42 4.439 1.907 5.34 1.787 5.34-.71zm226.583.78c1.357-2.196-.85-9.44-2.689-8.827-.883.294-1.714 2.01-1.847 3.812-.135 1.84.428 2.863 1.284 2.333.906-.56 1.13.09.55 1.598-1.029 2.683 1.169 3.565 2.702 1.083zm196.149-1.472c0-.771-.416-2.485-.923-3.808-.954-2.486-3.656-1.888-3.656.81 0 .84.804 1.03 1.786.423 1.2-.742 1.466-.272.81 1.436-.535 1.397-.308 2.54.504 2.54.813 0 1.478-.63 1.478-1.401zm-53.676-5.39c.275-2.346-.312-5.04-1.306-5.988-1.382-1.318-1.55-.513-.719 3.43.764 3.621.472 5.583-.984 6.603-1.676 1.176-1.635 1.335.219.837 1.259-.339 2.514-2.535 2.79-4.882zm83.638.304c-.718 1.194-.274 1.908 1.185 1.908 3.043 0 1.485-4.177-1.9-5.094-2.044-.554-1.87-.904.893-1.791 1.889-.607 3.434-1.75 3.434-2.542 0-.79-.679-1.019-1.509-.506-2.14 1.324-.081-3.807 3.295-8.208 4.893-6.379 3.069-10.228-4.005-8.453-4.628 1.162-5.032 3.128-.911 4.436 4.357 1.383 2.176 5.833-2.427 4.952-3.329-.636-3.6-.196-3.6 5.845 0 9.271 1.221 11.975 4.287 9.492 1.858-1.505 2.144-1.514 1.258-.04zm-222.665-8.173c-.507-.507-1.824-.561-2.925-.12-1.218.487-.856.849.922.922 1.609.066 2.51-.295 2.003-.802zm214.068-.604c0-.84-.727-1.526-1.616-1.526-.889 0-1.192.687-.673 1.526.519.84 1.246 1.527 1.616 1.527.37 0 .673-.687.673-1.527zm76.305-2.925c0-.574-.73-1.775-1.624-2.668-1.148-1.148-.855-2.393.999-4.248 2.848-2.849 4.156-11.053 1.976-12.4-.743-.46-1.35-.067-1.35.872 0 .938-.734 1.253-1.63.698-.897-.554-1.248-2.004-.781-3.222.467-1.218.214-1.822-.562-1.342-2.066 1.278-1.284 6.918.959 6.918 1.347 0 1.537 1.02.64 3.435-.96 2.583-2.27 3.313-5.292 2.943-3.172-.387-4.017.157-4.017 2.585 0 1.692 1.369 4.035 3.042 5.207 1.674 1.172 2.636 2.538 2.139 3.036-.498.497.537.527 2.298.067 1.762-.461 3.204-1.308 3.204-1.881zm110.262 1.914c-1.05-.423-2.766-.423-3.815 0-1.05.424-.192.77 1.907.77 2.098 0 2.957-.347 1.908-.77zm-177.824-9.07c-.507-.507-1.823-.56-2.925-.12-1.217.487-.855.849.922.922 1.61.066 2.51-.294 2.003-.802zM829.66 31.132c0-2.148.61-3.53 1.353-3.07.745.46 2.152-.124 3.127-1.3 1.974-2.379-.295-4.815-2.954-3.172-.839.519-1.526-.168-1.526-1.526s-.686-2.045-1.526-1.526c-.84.518-1.526.132-1.526-.86 0-1.332-.608-1.3-2.324.125-1.943 1.613-2.167 1.519-1.363-.576.927-2.416 4.27-3.287 10.435-2.719 2.759.255 2.781.102.379-2.553-1.406-1.553-2.096-3.283-1.535-3.845.562-.56-.81-1.02-3.048-1.02-2.642 0-4.07.822-4.07 2.343 0 1.289-1.077 3.988-2.394 5.997-2.8 4.275-2.417 13.994.529 13.397 1.072-.218 2.348.64 2.834 1.908 1.402 3.656 3.61 2.676 3.61-1.603zm63.334 188.6c-1.116-1.805.378-1.805 4.578 0 2.943 1.266 2.932 1.317-.291 1.42-1.84.059-3.768-.58-4.287-1.42zm316.38-19.359c1.103-.44 2.419-.386 2.926.12.507.508-.395.869-2.003.803-1.778-.074-2.14-.435-.922-.923zm5.06-8.627c-1.297-1.573-1.46-2.541-.43-2.541.917 0 1.27-1.03.787-2.29-1.197-3.122-3.604-2.895-3.604.34 0 2.204-.37 2.1-2.289-.64-2.472-3.53-1.55-8.627 1.305-7.21.96.477.595-.081-.813-1.241-1.75-1.441-2.12-2.806-1.168-4.31 1.203-1.902 1.396-1.894 1.416.063.012 1.246 1.313-.127 2.89-3.053 2.047-3.796 3.754-5.188 5.967-4.864 1.705.25 4.02-.78 5.145-2.29 1.125-1.509 3.075-2.651 4.334-2.538 1.26.113 3.148.285 4.197.381 2.432.225 2.516 11.046.166 21.23-1.597 6.919-1.96 7.362-4.353 5.313-1.508-1.292-2.428-3.899-2.178-6.176.426-3.876.361-3.856-3.976 1.226-2.425 2.842-4.61 6.511-4.855 8.154-.411 2.755-.61 2.79-2.54.446zm-27.665-9.993c0-.84.687-1.95 1.526-2.47.84-.518 1.526-.257 1.526.583s-.686 1.951-1.525 2.47c-.84.519-1.527.257-1.527-.583zm170.319-13.663c-.875-1.415 3.865-12.338 5.387-12.416 1.011-.052 2.792 5.444 2.828 8.727.012 1.05-1.01 1.908-2.268 1.908-1.26 0-2.29.687-2.29 1.526 0 1.848-2.562 2.027-3.657.255zm-158.07-5.135c-2.242-3.688-2.55-5.382-1.259-6.938.94-1.132 2.606-1.714 3.704-1.292 1.098.42 2.412.092 2.921-.732.509-.824.36-1.365-.333-1.203-.692.162-3.854-.244-7.027-.904-4.623-.96-5.595-1.745-4.896-3.95.61-1.919-.115-3.064-2.396-3.789-2.38-.755-2.813-1.495-1.59-2.718.924-.924 1.702-3.088 1.73-4.809.063-3.87 4.591-9.472 9.349-11.565l3.572-1.572-3.554.695c-2.695.527-3.34.139-2.67-1.608.486-1.267.883-2.974.883-3.795 0-.82.763-1.02 1.697-.443.933.577 2.2.235 2.815-.761 1.721-2.785 8.712-.351 11.584 4.033 2.682 4.094 3.427 13.935 1.174 15.519-1.493 1.049-1.485 2.674.03 6.671 2.182 5.758 2.387 7.25.993 7.25-.797 0-1.88 1.718-2.407 3.817-.526 2.098-1.793 3.816-2.815 3.816s-3.401 1.643-5.287 3.651c-2.554 2.719-2.914 3.858-1.411 4.459 1.533.612 1.554.836.088.927-1.062.067-3.265-2.075-4.897-4.759zm4.867-23.155c.877.541 1.316.15.976-.868-.932-2.798-3.546-2.159-3.948.966-.195 1.513.034 1.889.511.834.477-1.055 1.584-1.474 2.46-.932zm5.776-2.493c0-.84-.727-1.526-1.616-1.526-.89 0-1.192.687-.673 1.526.518.84 1.246 1.527 1.616 1.527.37 0 .673-.687.673-1.527zm-6.104-5.415c0-1.804-2.886-1.8-3.578.005-.564 1.47-.11 1.92 1.366 1.354 1.216-.467 2.212-1.079 2.212-1.359zm295.301 28.311c-.518-.84.087-1.526 1.346-1.526 1.26 0 2.714.687 3.233 1.526.518.84-.087 1.527-1.346 1.527-1.26 0-2.714-.687-3.233-1.527zm-867.592-8.685c0-.84 1.374-2.77 3.053-4.29 1.678-1.519 3.052-2.075 3.052-1.236 0 .84-1.374 2.77-3.052 4.29-1.68 1.52-3.053 2.075-3.053 1.236zM783.47 135.59c1.035-1.043 2.267-1.512 2.737-1.042.47.47-.378 1.324-1.883 1.897-2.175.828-2.35.653-.854-.855zm49.363-4.819c-.066-1.495 1.081-3.162 2.55-3.705 3.802-1.403 4.91-3.53 4.937-9.476.03-6.78.914-5.632 1.957 2.544.631 4.947.319 6.487-1.316 6.487-1.18 0-2.144.687-2.144 1.527 0 .84-.973 1.526-2.162 1.526-1.19 0-2.508.859-2.932 1.908-.452 1.122-.82.788-.89-.81zm-44.378-14.405c0-3.448 5.076-17.093 6.119-16.448.608.376-.005 4.079-1.362 8.229-2.411 7.373-4.757 11.426-4.757 8.22zm489.425-12.08c-2.146-2.145-.98-3.613 2.872-3.613 2.475 0 3.706.71 3.307 1.908-.734 2.206-4.61 3.276-6.18 1.706zm-454.283-2.908c.022-.808 2.064-3.873 4.537-6.811 2.473-2.938 4.487-4.656 4.475-3.816-.012.84-2.053 3.905-4.537 6.811-2.484 2.907-4.498 4.624-4.475 3.816zm10.285-7.956c-.366-3.988-.112-8.28.562-9.54.736-1.372 1.246 1.533 1.274 7.25.055 11.302-.901 12.494-1.837 2.29zm9.81-5.724c.032-2.518.374-3.364.76-1.879.388 1.485.362 3.546-.056 4.58-.418 1.033-.734-.182-.703-2.7z"/>
</svg>