<svg
  xmlns="http://www.w3.org/2000/svg"
  viewBox="0 0 1920 1200">
    <rect fill="#8ab696" width="1920" height="1200" ry="0" />
    <path fill="#96bea1"
      d="M0 825.893V451.788c138.89 22.446 295.13 65.042 422.753-19.689 68.037-21.126 146.317-13.488 210.76 14.373 91.865 36.264 190.073-3.132 284.902 8.187 92.771-4.963 198.367-21.058 275.352 45.543 105.196-25.977 214.526-7.434 320.774-25.949 71.883 8.65 139.382.76 211.783.599 64.916 4.797 128.547 21.075 193.676 23.647V1200H0V825.893z"
    />
    <path fill="#a3c5ac"
      d="M0 925.579V651.158c83.742-1.601 171.81 8.567 250.816-26.183 83.424-3.966 166.694 15.726 249.358 6.417 74.704-14.51 147.882-33.656 224.572-30.57 86.036-5.663 169.416 19.283 253.2 32.79 86.142-3.374 171.363-25.106 257.983-10.638 129.238 9.144 260.598 12.744 387.363 39.109 80.536 36.386 214.63 13.183 296.708 43.08 0 167.56-.287 325.299-.287 494.837H0z"
    />
    <path fill="#afcdb7"
      d="M0 982.67V765.342c66.236-14.788 125.831 64.134 180.075 24.082 78.948-13.954 151.967 42.855 230.914 34.503 83.266-20.178 168.563-12.53 252.737-26.928 109.614-14.373 220.37-24.062 330.705-19.042 96.172-14.204 195.87-34.145 291.767-7.273 109.606-56.402 227.262 23.085 341.007-1.07 88.032-9.563 204.512-10.576 292.795-4.19 0 149.603-.788 288.389-.788 434.576H0z"
    />
</svg>
